<?xml version="1.0" encoding="UTF-8" standalone="no"?>
<!-- Created with Inkscape (http://www.inkscape.org/) -->

<svg
   width="164.80716mm"
   height="125.2358mm"
   viewBox="0 0 164.80716 125.2358"
   version="1.1"
   id="svg1"
   xmlns="http://www.w3.org/2000/svg"
   xmlns:svg="http://www.w3.org/2000/svg">
  <defs
     id="defs1" />
  <g
     id="layer1"
     transform="translate(-122.76677,-149.225)">
    <path
       fill="#271b04"
       opacity="1"
       stroke="none"
       d="m 128.00093,187.64628 c 0.19366,0.28178 0.48058,0.53865 0.56373,0.84995 0.26483,0.99136 0.7923,1.15036 1.66716,0.71115 3.91562,-1.96587 7.84042,-3.91351 11.76298,-5.86555 3.44814,-1.71597 6.89123,-3.44225 10.34877,-5.13901 2.59666,-1.27431 5.2206,-2.49299 7.81834,-3.76509 3.97782,-1.94795 7.93454,-3.93911 11.91667,-5.87821 5.3212,-2.59115 10.65949,-5.14715 15.98629,-7.7268 0.59283,-0.2871 1.24263,-0.53934 1.71212,-0.97397 0.43035,-0.3984 0.825,-0.99056 0.92627,-1.55299 0.1538,-0.85413 0.11451,-1.7642 0.0231,-2.63644 -0.14137,-1.34883 0.46654,-2.19295 1.61513,-2.72863 2.58237,-1.20433 5.16659,-2.40519 7.76429,-3.57588 0.66098,-0.29786 1.11738,-0.0427 1.20671,0.71768 0.092,0.7832 0.25291,1.56718 0.25368,2.35095 0.0156,16.00526 0.0127,32.01053 0.0132,48.0158 1.6e-4,3.59794 0,7.19587 0,10.7938 1.1e-4,2.93563 0.0312,5.87169 -0.008,8.80678 -0.0477,3.5884 -0.22815,7.17621 -0.21805,10.7639 0.0156,5.54648 0.18632,11.09242 0.21455,16.63899 0.0401,7.87657 0.0154,15.75356 0.003,23.63036 0,0.65326 -0.16952,1.30538 -0.18354,1.95967 -0.029,1.35009 -0.78505,1.49248 -1.86272,1.21361 -5.44124,-1.40784 -10.89205,-2.7795 -16.32476,-4.21944 -6.19052,-1.64079 -12.3576,-3.3701 -18.54968,-5.00499 -5.13733,-1.35636 -10.30105,-2.61247 -15.44429,-3.94695 -8.34009,-2.16392 -16.67713,-4.34006 -24.99817,-6.5755 -0.48088,-0.12917 -1.12354,-0.81635 -1.15075,-1.27582 -0.12648,-2.13503 -0.0374,-4.28176 -0.0731,-6.42349 -0.0447,-2.68122 -0.16646,-5.36135 -0.19258,-8.04255 -0.0111,-1.13603 0.21254,-2.27454 0.19846,-3.41031 -0.0494,-3.9854 -0.23326,-7.9703 -0.2225,-11.95498 0.0166,-6.164 0.17985,-12.32748 0.22075,-18.49159 0.0142,-2.13311 -0.22475,-4.26773 -0.21594,-6.4011 0.0116,-2.81305 0.14994,-5.62572 0.24655,-8.4381 0.007,-0.20967 0.0497,-0.50363 0.1891,-0.61009 1.38364,-1.05671 2.78053,-2.10741 4.63601,-1.88874 -1.15796,0.60027 -2.26458,1.15326 -3.41503,1.59109 -0.79909,0.3041 -0.99005,0.79181 -0.97889,1.60084 0.0438,3.17414 0.0134,6.34929 0.0135,9.52406 5.3e-4,17.37309 0.0134,34.7462 -0.0238,52.11919 -0.002,1.09903 0.30305,1.49715 1.38176,1.73712 2.96479,0.6595 5.8966,1.46918 8.83639,2.23878 21.93965,5.74331 43.88082,11.48077 65.80996,17.2639 1.32693,0.34999 1.3812,-0.1968 1.3808,-1.20864 -0.0161,-40.43428 -0.0185,-80.86855 -0.0259,-121.30282 -8e-5,-0.41603 -0.0434,-0.83207 -0.0779,-1.45011 -0.80788,0.41773 -1.45584,0.75278 -2.09193,1.09462 0.0119,0.007 0.003,-0.0192 -0.0795,-0.0194 -0.21077,0.0883 -0.3389,0.17693 -0.45472,0.27989 0.0123,0.0144 0.002,-0.0219 -0.0803,-0.0231 -0.21381,0.0828 -0.34567,0.16669 -0.45559,0.26793 0.0219,0.0173 -0.0116,-0.0274 -0.0918,-0.0221 -0.20386,0.0946 -0.32756,0.18385 -0.42634,0.2963 0.0249,0.0231 -0.018,-0.0297 -0.0975,-0.0315 -0.2091,0.0787 -0.33869,0.15915 -0.47245,0.25047 -0.004,0.0108 -0.0159,-0.009 -0.11002,0.002 -0.80653,0.38234 -1.51898,0.75324 -2.21787,1.12773 0.0136,0.004 -0.009,-0.0134 -0.0976,-0.01 -0.38353,0.18095 -0.6782,0.35851 -0.95969,0.53818 0.0132,0.002 -0.01,-0.0115 -0.0987,-0.009 -0.38148,0.18251 -0.6741,0.36238 -0.9563,0.54446 0.0104,0.002 -0.009,-0.008 -0.12461,0.005 -0.25081,0.25969 -0.49971,0.50487 -0.50221,0.75253 -0.0162,1.61406 0.021,3.22869 0.01,4.88486 -0.0851,0.12953 -0.13937,0.21735 -0.27751,0.32323 -0.21696,0.11556 -0.34997,0.21302 -0.47377,0.30677 0.009,-0.004 -0.0122,-0.003 -0.0912,0.004 -0.19816,0.0999 -0.31736,0.19319 -0.41825,0.30762 0.0183,0.0211 -0.007,-0.0285 -0.0884,-0.0277 -0.20887,0.088 -0.33675,0.17531 -0.4501,0.28267 0.0145,0.0201 3e-5,-0.0273 -0.0934,-0.0202 -0.24121,0.11257 -0.38901,0.21809 -0.5552,0.31519 -0.0184,-0.008 -0.0421,0.0243 -0.12247,0.025 -0.15574,0.0673 -0.23112,0.13395 -0.29394,0.20341 0.0126,0.003 0.006,-0.0222 -0.088,-0.0176 -0.24474,0.10845 -0.39507,0.21226 -0.55792,0.30789 -0.0125,-0.008 -0.0352,0.0114 -0.12547,0.0129 -0.233,0.0932 -0.37574,0.18478 -0.51055,0.28131 0.008,0.005 -2.6e-4,-0.0118 -0.0891,-0.009 -0.38585,0.17798 -0.68289,0.35276 -0.9721,0.53392 0.008,0.006 0.006,-0.0137 -0.0769,-0.0155 -0.20919,0.0887 -0.33593,0.17925 -0.45498,0.27737 0.008,0.008 0.007,-0.014 -0.0766,-0.0188 -0.21389,0.084 -0.34448,0.17278 -0.46489,0.26686 0.0102,0.005 0.01,-0.0177 -0.0734,-0.0171 -0.21043,0.0909 -0.33798,0.18114 -0.45501,0.28034 0.0105,0.009 0.006,-0.0183 -0.0769,-0.0212 -0.21318,0.0856 -0.34332,0.17423 -0.46326,0.27143 0.0102,0.009 0.0105,-0.0181 -0.0841,-0.0142 -0.24757,0.10438 -0.4006,0.20488 -0.56999,0.29646 -0.0164,-0.009 -0.0406,0.0194 -0.13757,0.0244 -0.19251,0.085 -0.28806,0.16505 -0.3977,0.23606 -0.0141,-0.009 -0.0383,0.0141 -0.13597,0.0211 -0.19216,0.0888 -0.28668,0.17056 -0.39261,0.24197 -0.0114,-0.0104 -0.0369,0.007 -0.11797,0.01 -0.15958,0.0681 -0.23807,0.1335 -0.31579,0.19152 7.9e-4,-0.007 -0.0139,-0.009 -0.0992,5.3e-4 -0.37417,0.17966 -0.66307,0.34937 -0.91713,0.56633 0.0348,0.0473 -0.0361,-0.0454 -0.12819,-0.035 -0.23722,0.1159 -0.38236,0.22138 -0.54045,0.3197 -0.013,-0.007 -0.0346,0.0132 -0.11615,0.0156 -0.15984,0.0691 -0.23811,0.1358 -0.31262,0.19444 0.004,-0.008 -0.014,-0.009 -0.10888,0.003 -1.51242,0.73542 -2.92994,1.45849 -4.33796,2.18758 0.01,0.006 0.007,-0.0163 -0.0755,-0.0164 -0.20944,0.0906 -0.33642,0.1814 -0.45442,0.28049 0.009,0.008 0.006,-0.0161 -0.0765,-0.0188 -0.21297,0.0866 -0.34302,0.17599 -0.46272,0.27112 0.0103,0.006 0.009,-0.0179 -0.0731,-0.0151 -0.20724,0.0962 -0.33217,0.18967 -0.44803,0.29084 0.009,0.008 0.008,-0.016 -0.075,-0.0167 -0.21078,0.09 -0.33874,0.18073 -0.45692,0.27763 0.01,0.006 0.009,-0.0169 -0.0739,-0.0154 -0.20794,0.094 -0.33338,0.1865 -0.45023,0.28683 0.009,0.008 0.007,-0.0154 -0.0757,-0.0174 -0.21039,0.0891 -0.33779,0.18032 -0.45566,0.27865 0.01,0.007 0.007,-0.0165 -0.0754,-0.016 -0.20596,0.0951 -0.32951,0.18978 -0.44567,0.29148 0.007,0.007 0.006,-0.0133 -0.077,-0.0154 -0.21088,0.0869 -0.33925,0.17595 -0.4585,0.27165 0.009,0.007 0.008,-0.0158 -0.075,-0.0162 -0.20857,0.0916 -0.33449,0.18347 -0.44769,0.27566 0.0127,2.6e-4 -0.011,-0.009 -0.10682,-0.004 -11.08005,5.36797 -22.06229,10.73516 -33.0498,16.09155 -3.11453,1.51834 -6.24438,3.00529 -9.39638,4.53442 -0.0292,0.0278 0.0338,-0.0224 0.0345,-0.13932 -0.0327,-1.05813 -0.066,-1.99941 -0.0994,-2.94068 z"
       id="path8"
       style="stroke-width:0.264583" />
    <path
       fill="#daae3e"
       opacity="1"
       stroke="none"
       d="m 205.89161,253.38189 c 0,3e-5 -0.0161,-0.10784 -0.0281,-0.27321 3e-5,-0.95834 0.0225,-1.75135 0.0222,-2.54439 -0.003,-22.65056 -0.0114,-45.30111 -0.007,-67.95168 0.003,-10.92787 0.031,-21.85573 0.0477,-32.7836 0,0 -0.0519,-0.0237 0.0568,-0.0336 3.12751,1.29517 6.15437,2.58266 9.15249,3.93382 0.28848,0.13 0.54097,0.64513 0.56722,0.99947 0.12343,1.66571 0.16195,3.33772 0.1298,5.00797 -0.31062,-0.48696 -0.65037,-0.96106 -0.70207,-1.46474 -0.0986,-0.95992 0.0394,-1.94468 -0.0664,-2.90305 -0.0508,-0.46064 -0.32271,-1.11478 -0.68326,-1.2876 -2.178,-1.04409 -4.3992,-2.00166 -6.63138,-2.92689 -0.72541,-0.30068 -1.19817,0.001 -1.15449,0.87231 0.0199,0.3957 0,0.79329 0,1.19002 -0.003,27.59513 -0.005,55.19024 -0.0701,82.86304 -0.0175,0.98723 0.079,1.89764 0.0645,2.80624 -0.0617,3.86199 -0.17084,7.72322 -0.23331,11.58521 -0.0329,2.03311 0.24361,2.2094 2.21335,1.78977 2.78424,-0.59317 5.57892,-1.13758 8.47185,-1.71514 2.32913,-0.52638 4.55549,-1.04047 6.896,-1.55699 2.50608,-0.44471 4.89807,-0.88688 7.40195,-1.328 2.8987,-0.49752 5.6819,-1.01794 8.47336,-1.48913 3.47951,-0.58732 6.96585,-1.13405 10.52378,-1.66079 1.11008,0.58278 0.41936,0.91924 -0.17508,1.29151 -1.97223,0.61826 -3.84505,1.22437 -5.82258,1.83616 -2.33076,0.71586 -4.55689,1.42605 -6.88048,2.14667 -0.59328,0.1751 -1.09691,0.31957 -1.58346,0.50806 -1.5571,0.60317 -3.1079,1.22266 -4.7662,1.83864 -2.41729,0.80274 -4.72953,1.60274 -7.13819,2.41358 -2.32164,0.88302 -4.54682,1.75522 -6.86891,2.63985 -3.11427,1.23481 -6.12732,2.46804 -9.15156,3.67335 -0.98433,0.39229 -1.39788,1.01764 -1.3738,2.11976 0.0655,2.99699 0.0169,5.99633 0.0254,8.99472 0,0.41317 0.0689,0.82616 0.11353,1.32559 0.37992,-0.0692 0.59119,-0.0949 0.79579,-0.14679 4.25715,-1.07945 8.50763,-2.18556 12.77123,-3.23879 8.65507,-2.13799 17.32116,-4.23143 25.97491,-6.37463 5.96995,-1.47847 11.92366,-3.02242 17.89041,-4.51388 6.9496,-1.73712 13.8997,-3.47281 20.86441,-5.14773 1.1358,-0.27313 1.5572,-0.8628 1.4991,-1.93064 -0.074,-1.35895 -0.11443,-2.72386 -0.29353,-4.06969 -0.038,-0.28548 -0.60904,-0.70365 -0.93879,-0.70768 -0.91403,-0.0111 -1.83118,0.15695 -2.74561,0.26676 -3.61244,0.43386 -7.22424,0.87254 -10.94333,1.30328 -1.53741,0.24818 -2.96775,0.50247 -4.51006,0.75621 -1.97532,0.2685 -3.83865,0.53755 -5.8085,0.80314 -0.65175,-0.0716 -1.19703,-0.13975 -1.74234,-0.20788 0,-0.17037 -0.003,-0.34071 -0.003,-0.51107 0.63109,-0.0964 1.26223,-0.19288 1.83547,-0.23842 -0.19746,0.12462 -0.33705,0.19833 -0.46387,0.26527 8.703,-1.06413 17.40101,-2.12767 26.09903,-3.19122 0,0 0.004,-0.0316 0.003,0.0956 -0.003,2.56764 -0.005,5.00795 -0.006,7.44828 0,0 0.0386,0.03 -0.0764,0.0325 -24.5682,6.10122 -49.02054,12.20354 -73.47616,18.29282 -2.50709,0.62423 -5.03373,1.17001 -7.55132,1.7522 0,-3e-5 -0.0145,0.0243 0.008,-0.0966 0.003,-4.34086 -0.0188,-8.56073 -0.0394,-12.78062 0,0 -0.0251,0 0.042,-0.0156 0.12346,-0.088 0.17979,-0.16177 0.23614,-0.23551 0,0 -0.0262,0.003 0.0757,0.003 0.26779,-0.0565 0.43754,-0.10478 0.59902,-0.1727 11.20103,-4.71143 22.57896,-8.94897 34.12887,-12.72368 2.69817,-0.88185 5.41319,-1.71222 8.12046,-2.56626 -0.0364,-0.16158 -0.0729,-0.32315 -0.10936,-0.48474 -14.35343,2.80602 -28.70692,5.61204 -43.06038,8.41802 z"
       id="path10"
       style="stroke-width:0.264583" />
    <path
       fill="#271b04"
       opacity="1"
       stroke="none"
       d="m 215.93424,159.73614 c -0.0688,-1.66974 -0.10735,-3.34175 -0.23077,-5.00746 -0.0262,-0.35434 -0.27874,-0.86947 -0.56722,-0.99947 -2.99812,-1.35116 -6.02498,-2.63865 -9.13151,-3.91454 -0.0707,-0.82104 0.47379,-0.60424 0.90657,-0.41223 2.76844,1.22832 5.5295,2.47349 8.28479,3.7311 0.83479,0.38099 1.29344,1.01044 1.20912,1.99074 -0.0527,0.61256 0.0819,1.2498 -0.0254,1.84753 -0.32488,1.80701 0.57079,2.66618 2.13066,3.3524 6.1418,2.70193 12.26974,5.43947 18.34756,8.28192 10.21342,4.77655 20.38226,9.64849 30.57491,14.46955 4.20494,1.98891 8.42232,3.95148 12.6365,5.92082 0.30514,0.14263 0.63016,0.2428 1.02666,0.39336 0.0587,-0.3584 0.10237,-0.60843 0.14041,-0.85932 0.21421,-1.41264 0.82111,-1.79577 2.07328,-1.20357 1.25801,0.595 2.47436,1.27815 3.70972,2.03271 0,0.11007 -0.044,0.15365 -0.13398,0.12318 -1.63584,-0.69182 -3.18172,-1.35313 -4.9479,-2.10871 0,1.21038 0,2.12633 0.0368,3.0795 0.0368,0.0372 -0.0409,-0.0329 -0.12887,-0.0376 -0.21024,-0.0476 -0.33732,-0.0801 -0.45395,-0.13492 -17.44932,-8.20362 -34.89201,-16.42145 -52.35067,-24.60519 -4.34157,-2.03508 -8.73469,-3.96032 -13.10722,-5.93579 -0.003,2.5e-4 0,-0.004 0,-0.004 z"
       id="path21"
       style="stroke-width:0.264583" />
    <path
       fill="#271b04"
       opacity="1"
       stroke="none"
       d="m 205.82136,149.85096 c 0.0889,10.90592 0.0602,21.83378 0.0579,32.76165 -0.005,22.65057 0.005,45.30112 0.007,67.95168 8e-5,0.79304 -0.0222,1.58605 -0.0528,2.49918 -0.19103,-0.35944 -0.51252,-0.83852 -0.51387,-1.31853 -0.029,-10.22947 -0.022,-20.45903 -0.022,-30.68857 10e-5,-7.01077 0,-14.02155 0,-21.03231 2.1e-4,-10.03765 0,-20.07529 0,-30.11294 2.1e-4,-6.15768 -0.009,-12.31543 0.0193,-18.47298 0.003,-0.52234 0.25929,-1.04351 0.50356,-1.58718 z"
       id="path23"
       style="stroke-width:0.264583" />
    <path
       fill="#271b04"
       opacity="1"
       stroke="none"
       d="m 205.93817,253.4727 c 14.3069,-2.89679 28.66038,-5.7028 43.01382,-8.50883 0.0364,0.16159 0.0729,0.32316 0.10935,0.48474 -2.70727,0.85404 -5.42229,1.68441 -8.12046,2.56626 -11.54991,3.77471 -22.92784,8.01225 -34.12887,12.72368 -0.16147,0.0679 -0.33123,0.11618 -0.59465,0.18513 0.62034,-0.49607 1.27331,-1.1644 2.06677,-1.48487 4.76191,-1.92307 9.53693,-3.81759 14.34589,-5.61922 3.57857,-1.34061 7.21736,-2.52018 10.82508,-3.78354 1.85658,-0.65016 3.70388,-1.32673 5.52225,-2.31135 -0.84992,0.0697 -1.71415,0.064 -2.54722,0.2222 -3.405,0.64651 -6.7977,1.35745 -10.20019,2.01732 -3.83209,0.74319 -7.67302,1.44108 -11.50406,2.18958 -2.23575,0.43683 -4.45391,0.96483 -6.69245,1.38552 -0.66103,0.12425 -1.36461,0.0225 -2.09526,-0.0666 z"
       id="path24"
       style="stroke-width:0.264583" />
    <path
       fill="#271b04"
       opacity="1"
       stroke="none"
       d="m 205.88745,274.13671 c 2.52055,-0.68239 5.04719,-1.22817 7.55428,-1.8524 24.45562,-6.08928 48.90796,-12.1916 73.46106,-18.312 -0.31904,0.27379 -0.69861,0.72385 -1.16266,0.84193 -8.93921,2.27489 -17.88909,4.50803 -26.83521,6.75579 -9.37056,2.3544 -18.73601,4.72932 -28.11063,7.06755 -5.28539,1.31834 -10.58555,2.57747 -15.87746,3.86985 -2.64083,0.6449 -5.27402,1.32152 -7.9217,1.93657 -0.33605,0.078 -0.73882,-0.13105 -1.10768,-0.30729 z"
       id="path25"
       style="stroke-width:0.264583" />
    <path
       fill="#271b04"
       opacity="1"
       stroke="none"
       d="m 287.04267,189.44808 c 0.19267,0.3798 0.51107,0.78105 0.51168,1.18279 0.0251,16.95371 0.0238,33.90746 0.009,50.86119 0,0.36102 -0.19082,0.72185 -0.40812,1.10416 -0.11552,0.0214 -0.14862,-0.012 -0.13044,-0.13216 0.0156,-14.07707 0.0167,-28.034 0.007,-41.99093 -0.003,-3.65328 -0.0372,-7.30653 -0.0571,-10.9598 0,0 0.0448,-0.0436 0.0673,-0.0652 z"
       id="path28"
       style="stroke-width:0.264583" />
    <path
       fill="#271b04"
       opacity="1"
       stroke="none"
       d="m 286.94015,246.32135 c -8.64008,1.15724 -17.3381,2.22078 -26.04109,3.28491 0.12682,-0.0669 0.26641,-0.14065 0.45903,-0.26707 0.053,-0.0527 0.0647,-0.0517 0.16991,-0.0495 1.71538,-0.41891 3.32664,-0.83595 4.93551,-1.2619 6.84821,-1.81311 13.69568,-3.62881 20.54344,-5.44356 0,-1e-5 0.0331,0.0334 0.0498,0.0504 -0.51941,0.34213 -1.01648,0.81428 -1.59793,0.96872 -3.94195,1.04697 -7.90369,2.01905 -11.85283,3.03946 -0.44132,0.11403 -0.84362,0.3791 -1.26402,0.57409 0.0275,0.11266 0.055,0.22529 0.0824,0.33795 2.21295,-0.26971 4.42087,-0.59477 6.64009,-0.79475 2.60078,-0.23432 5.21134,-0.35978 7.87562,-0.43874 z"
       id="path29"
       style="stroke-width:0.264583" />
    <path
       fill="#271b04"
       opacity="1"
       stroke="none"
       d="m 205.76315,261.2043 c 0.11681,4.17486 0.13756,8.39473 0.14954,12.73384 -0.21021,-0.22291 -0.58279,-0.56301 -0.58687,-0.9075 -0.043,-3.61365 -0.0361,-7.22804 -0.0114,-10.84204 0.003,-0.31387 0.22977,-0.62627 0.44871,-0.9843 z"
       id="path38"
       style="stroke-width:0.264583" />
    <path
       fill="#271b04"
       opacity="1"
       stroke="none"
       d="m 287.10149,253.94723 c -0.10575,-2.42861 -0.10427,-4.86892 -0.11311,-7.42632 0.18412,0.0644 0.54499,0.24347 0.54761,0.42759 0.0309,2.20302 0.014,4.40687 -0.0135,6.61021 -0.003,0.12685 -0.20452,0.25123 -0.42097,0.38852 z"
       id="path41"
       style="stroke-width:0.264583" />
    <path
       fill="#271b04"
       opacity="1"
       stroke="none"
       d="m 206.06798,260.92969 c 0.013,0.0523 -0.0433,0.12602 -0.16582,0.22656 -0.0119,-0.0505 0.0423,-0.12779 0.16582,-0.22656 z"
       id="path47"
       style="stroke-width:0.264583" />
    <path
       fill="#fdc714"
       opacity="1"
       stroke="none"
       d="m 188.94709,161.13096 c 0,0 0.0238,-0.0327 0.14157,-0.0203 0.26162,-0.10046 0.40542,-0.21336 0.54919,-0.32625 0,-2e-5 0.0145,0.0474 0.0861,0.0471 0.19607,-0.10124 0.32049,-0.20226 0.44494,-0.30329 0,0 0.0257,0.0496 0.0941,0.0454 0.18245,-0.11317 0.29649,-0.22216 0.41055,-0.33113 0,0 0.0214,-5.3e-4 0.10632,0.0206 0.21112,-0.1 0.33734,-0.22116 0.46357,-0.34235 0.0542,-0.0878 0.10844,-0.17561 0.27956,-0.38185 0.25203,-1.93698 0.38717,-3.75551 0.5223,-5.57403 0,0 0.0191,0.0104 0.10926,0.0213 0.375,-0.17946 0.65983,-0.36983 0.94465,-0.56022 0,0 0.023,0.0136 0.1106,0.0258 0.37435,-0.17715 0.66107,-0.36653 0.9478,-0.55592 -2e-5,0 0.0223,0.017 0.11259,0.0274 0.79623,-0.37748 1.50215,-0.76533 2.20808,-1.15316 0,0 0.0118,0.02 0.10041,0.036 0.21493,-0.0812 0.34122,-0.17831 0.46748,-0.27543 0,0 0.0429,0.0528 0.10394,0.0476 0.18087,-0.10996 0.30072,-0.21475 0.42058,-0.31954 0,0 0.0335,0.0447 0.0973,0.046 0.19314,-0.0943 0.32248,-0.18986 0.45181,-0.28541 0,2e-5 0.0107,0.0363 0.0836,0.0364 0.19931,-0.098 0.32571,-0.19605 0.4521,-0.29407 2e-5,0 0.009,0.0259 0.11382,0.0379 1.19504,-0.15354 1.52736,0.29585 1.52606,1.40056 -0.0315,27.41005 -0.0296,54.82014 -0.12472,82.24033 -0.34095,0.18019 -0.60857,0.32937 -0.83813,0.52355 -2.6629,2.25228 -5.7381,3.66145 -9.1092,4.35161 -0.002,-22.79745 -0.002,-45.4716 -0.002,-68.31223 -1.82422,0.78566 -3.40573,1.54732 -5.04685,2.14545 -1.10605,0.40307 -1.343,1.04903 -1.34144,2.16818 0.0337,24.10933 0.0229,48.21874 -0.085,72.329 -2.14787,-0.52872 -4.19009,-1.05834 -6.23496,-1.7113 -0.003,-23.14232 -0.003,-46.16127 -0.003,-69.54139 -1.67458,0.70864 -2.87688,1.34789 -4.1566,1.72318 -1.34526,0.39448 -1.70188,1.11594 -1.69895,2.48591 0.0449,21.11316 0.0301,42.22644 -0.0604,63.30022 -1.96792,-0.54092 -3.84629,-1.04238 -5.72565,-1.66769 -0.003,-19.69559 -0.004,-39.26733 -0.006,-58.83905 -5e-5,-0.35264 -0.007,-0.70537 -0.002,-1.05791 0.0107,-0.73602 -0.34278,-0.95427 -1.00897,-0.70438 -0.82385,0.30904 -1.62028,0.72579 -2.46863,0.92688 -1.34774,0.31944 -1.58072,1.11973 -1.57778,2.40074 0.0431,18.86634 0.0301,37.73279 -0.0681,56.58692 -1.79089,-0.44687 -3.48323,-0.88146 -5.1778,-1.43888 -0.002,-18.26402 -0.002,-36.40521 -0.002,-54.72559 -1.12079,0.3895 -1.89194,0.69678 -2.68595,0.92414 -1.1576,0.33147 -1.59727,0.94744 -1.59301,2.25308 0.0542,16.60804 0.034,33.21633 -0.0559,49.78599 -1.5267,-0.54007 -2.96481,-1.04155 -4.40429,-1.66703 -0.001,-15.94927 -0.001,-31.77452 -0.001,-47.77636 -0.86775,0.32974 -1.45729,0.64613 -2.08526,0.77438 -1.62285,0.33148 -1.92084,1.32625 -1.91485,2.85991 0.0553,14.13657 0.0306,28.27346 -0.0661,42.39844 -1.35229,-0.53306 -2.60922,-1.05428 -3.8678,-1.69912 -0.003,-13.12582 -0.004,-26.12796 -0.006,-39.13012 -5e-5,-0.39655 0.0426,-0.80368 -0.0353,-1.18536 -0.0408,-0.20023 -0.35932,-0.53477 -0.45178,-0.5042 -0.99616,0.32924 -2.02348,0.62971 -2.92353,1.14539 -0.28082,0.16089 -0.27755,0.94796 -0.27821,1.44854 -0.0165,12.25285 -0.016,24.5057 -0.11448,36.747 -1.26,-0.4461 -2.42406,-0.88064 -3.59177,-1.43806 -0.007,-11.18658 -0.011,-22.25023 -0.0152,-33.31389 -1.3e-4,-0.35257 0.0557,-0.721 -0.0296,-1.05243 -0.0625,-0.24276 -0.28269,-0.58607 -0.48584,-0.62825 -1.18657,-0.24648 -2.924,1.198 -2.90901,2.39094 0.0763,6.07416 0.21579,12.14809 0.22839,18.22232 0.009,4.31054 -0.14841,8.62144 -0.32464,12.91802 -1.35706,-0.70769 -2.62101,-1.40125 -3.88969,-2.21953 -0.005,-11.53941 -0.007,-22.95409 -0.006,-34.36878 1.6e-4,-2.3507 0.71136,-3.12055 3.14016,-3.49285 0.30963,0.65618 0.60971,1.29214 0.90978,1.92812 0,0 -0.063,0.0502 -0.0342,0.11344 0.39077,0.0893 0.82261,0.25826 1.10441,0.12042 5.67478,-2.77562 11.32607,-5.59917 16.99479,-8.38724 7.8706,-3.871 15.75398,-7.71602 23.62022,-11.59579 0.33426,-0.16488 0.55132,-0.56739 0.82296,-0.85922 0,0 0.0238,0.009 0.095,0.0172 0.19631,-0.0892 0.32133,-0.18638 0.44636,-0.28351 0,0 0.002,0.0225 0.0761,0.0246 0.20217,-0.0914 0.32974,-0.18485 0.45733,-0.27829 0,0 0.002,0.0203 0.0783,0.0198 0.19906,-0.0998 0.32165,-0.19913 0.44424,-0.29845 0,0 0.002,0.0237 0.0771,0.0254 0.20126,-0.094 0.3279,-0.18977 0.45454,-0.28553 0,0 0.001,0.0232 0.0771,0.0236 0.20001,-0.0986 0.32413,-0.19759 0.44825,-0.2966 0,0 0.001,0.0231 0.0759,0.0259 0.20156,-0.0934 0.32837,-0.18968 0.45519,-0.28598 0,0 0.001,0.0237 0.077,0.0243 0.19905,-0.10022 0.32229,-0.20104 0.44552,-0.30186 0,0 0.001,0.0237 0.0756,0.0284 0.20325,-0.0898 0.33202,-0.18432 0.46079,-0.27884 0,0 0.003,0.0244 0.0777,0.0252 0.201,-0.0959 0.32684,-0.19273 0.45267,-0.28955 0,0 0.003,0.0223 0.0979,0.0308 1.50625,-0.73248 2.9171,-1.47342 4.32797,-2.21437 0,0 0.0178,0.001 0.0938,0.01 0.1555,-0.06 0.23493,-0.12877 0.31437,-0.19748 0,0 0.0216,-0.0204 0.1345,-0.007 0.25282,-0.1033 0.39271,-0.21962 0.53263,-0.33593 0,0 0.0709,0.0926 0.13232,0.0788 0.34299,-0.21246 0.62457,-0.41105 0.90616,-0.60966 0,0 0.0147,0.002 0.0935,0.011 0.15831,-0.0593 0.23779,-0.12752 0.31728,-0.19574 0,0 0.0255,-0.0175 0.13002,-0.0208 0.20211,-0.0807 0.29962,-0.15794 0.39712,-0.23523 0,0 0.0242,-0.0231 0.13087,-0.0274 0.20514,-0.0788 0.30362,-0.15327 0.40209,-0.22776 0,0 0.0243,-0.0283 0.13969,-0.0147 0.26544,-0.0926 0.41547,-0.19885 0.56549,-0.30509 0,0 -2.7e-4,0.0267 0.0751,0.0328 0.20383,-0.0903 0.33226,-0.18678 0.46071,-0.2832 0,0 0.004,0.0272 0.0791,0.0305 0.20074,-0.0955 0.32666,-0.19437 0.45261,-0.29322 0,0 5.3e-4,0.023 0.0748,0.028 0.20405,-0.0875 0.33393,-0.17995 0.46382,-0.27242 0,1e-5 0.001,0.0216 0.0767,0.0222 0.20183,-0.0942 0.32789,-0.18901 0.45396,-0.2838 0,0 0.002,0.02 0.0945,0.0269 0.38181,-0.17883 0.67131,-0.36461 0.96081,-0.55038 0,0 0.008,0.0167 0.0885,0.0161 0.22437,-0.0961 0.3685,-0.19163 0.51263,-0.28713 -1e-5,0 0.0226,-0.0196 0.13501,-0.005 0.25906,-0.0966 0.40579,-0.20771 0.55252,-0.31881 0,0 0.006,0.025 0.071,0.0211 0.14216,-0.0703 0.21953,-0.13662 0.29691,-0.20298 z"
       id="path54"
       style="stroke-width:0.264583" />
    <path
       fill="#daae3e"
       opacity="1"
       stroke="none"
       d="m 128.10037,190.58696 c -0.30081,-0.51911 -0.60089,-1.15507 -0.91051,-1.81124 -2.42881,0.37229 -3.14001,1.14214 -3.14017,3.49284 -7.9e-4,11.41469 8e-4,22.82937 0.004,34.49137 0.002,8.22806 5.3e-4,16.20881 10e-4,24.18957 1.3e-4,2.31883 0.14639,2.47203 2.37814,3.01294 5.59224,1.35541 11.18756,2.69962 16.76541,4.11242 4.12648,1.04518 8.2303,2.18048 12.33906,3.2947 5.37974,1.45891 10.74366,2.97749 16.13417,4.3952 5.89929,1.55149 11.82494,3.00249 17.73161,4.52631 3.15124,0.81296 6.2988,1.64555 9.42301,2.55524 1.15761,0.33705 1.4691,0.0548 1.46108,-1.11993 -0.0441,-6.43721 -0.0286,-12.87478 -0.0285,-19.43618 0.004,-6.03595 0.004,-11.94798 0.003,-17.85999 0.004,-27.41008 0.003,-54.82017 0.0337,-82.23022 0,-1.10471 -0.33102,-1.5541 -1.53794,-1.40734 0.53099,-0.35376 1.17895,-0.68881 1.98683,-1.10654 0.0344,0.61804 0.0778,1.03408 0.0779,1.45011 0.007,40.43427 0.01,80.86854 0.0259,121.30282 0,1.01184 -0.0539,1.55863 -1.3808,1.20864 -21.92915,-5.78313 -43.87032,-11.52059 -65.80997,-17.2639 -2.93979,-0.7696 -5.8716,-1.57928 -8.83639,-2.23878 -1.07871,-0.23997 -1.38412,-0.63809 -1.38176,-1.73712 0.0372,-17.37299 0.0244,-34.7461 0.0238,-52.11919 -9e-5,-3.17477 0.0303,-6.34992 -0.0135,-9.52406 -0.0112,-0.80903 0.1798,-1.29674 0.9789,-1.60084 1.15044,-0.43783 2.25706,-0.99082 3.4694,-1.51254 0.087,-0.0179 0.1166,-0.039 0.10979,-0.022 0.0266,0.95827 0.0599,1.89956 0.0926,2.95768 z"
       id="path55"
       style="stroke-width:0.264583" />
    <path
       fill="#daae3e"
       opacity="1"
       stroke="none"
       d="m 170.51202,170.10031 c -0.17584,0.28696 -0.3929,0.68947 -0.72717,0.85435 -7.86623,3.87977 -15.74962,7.72479 -23.62021,11.59579 -5.66873,2.78807 -11.32002,5.61162 -16.9948,8.38725 -0.2818,0.13783 -0.71363,-0.0311 -1.07522,-0.1482 3.12322,-1.59235 6.25307,-3.0793 9.36761,-4.59764 10.98751,-5.35639 21.96975,-10.72358 33.04979,-16.09155 z"
       id="path56"
       style="stroke-width:0.264583" />
    <path
       fill="#daae3e"
       opacity="1"
       stroke="none"
       d="m 179.71356,165.54007 c -1.31598,0.72862 -2.72682,1.46956 -4.24257,2.19604 1.31263,-0.73755 2.73014,-1.46062 4.24257,-2.19604 z"
       id="path57"
       style="stroke-width:0.264583" />
    <path
       fill="#daae3e"
       opacity="1"
       stroke="none"
       d="m 191.92945,153.97824 c -0.0192,1.80518 -0.15439,3.6237 -0.3755,5.51895 -0.10572,-1.53773 -0.14295,-3.15236 -0.12672,-4.76642 0.002,-0.24767 0.25141,-0.49284 0.50222,-0.75253 z"
       id="path58"
       style="stroke-width:0.264583" />
    <path
       fill="#daae3e"
       opacity="1"
       stroke="none"
       d="m 196.38423,151.78154 c -0.61185,0.37637 -1.31777,0.76422 -2.12757,1.13808 0.60859,-0.38484 1.32105,-0.75574 2.12757,-1.13808 z"
       id="path59"
       style="stroke-width:0.264583" />
    <path
       fill="#daae3e"
       opacity="1"
       stroke="none"
       d="m 187.20173,161.91087 c -0.2007,0.18259 -0.4902,0.36837 -0.87981,0.54084 0.19692,-0.18809 0.49397,-0.36287 0.87981,-0.54084 z"
       id="path60"
       style="stroke-width:0.264583" />
    <path
       fill="#daae3e"
       opacity="1"
       stroke="none"
       d="m 181.83697,164.47591 c -0.1963,0.18867 -0.47789,0.38726 -0.85573,0.55247 0.19266,-0.20311 0.48156,-0.37282 0.85573,-0.55247 z"
       id="path61"
       style="stroke-width:0.264583" />
    <path
       fill="#daae3e"
       opacity="1"
       stroke="none"
       d="m 194.06875,152.89924 c -0.19784,0.186 -0.48456,0.37538 -0.87209,0.55042 0.19387,-0.19191 0.48854,-0.36947 0.87209,-0.55042 z"
       id="path62"
       style="stroke-width:0.264583" />
    <path
       fill="#daae3e"
       opacity="1"
       stroke="none"
       d="m 193.01037,153.4286 c -0.19595,0.18775 -0.48078,0.37811 -0.86618,0.55538 0.19206,-0.193 0.48468,-0.37287 0.86618,-0.55538 z"
       id="path63"
       style="stroke-width:0.264583" />
    <path
       fill="#daae3e"
       opacity="1"
       stroke="none"
       d="m 198.57292,150.76132 c -0.0438,0.0982 -0.17016,0.19629 -0.38178,0.27991 0.0429,-0.10298 0.17102,-0.19156 0.38178,-0.27991 z"
       id="path64"
       style="stroke-width:0.264583" />
    <path
       fill="#daae3e"
       opacity="1"
       stroke="none"
       d="m 186.15276,162.42931 c -0.0436,0.0966 -0.16969,0.19141 -0.37921,0.278 0.0433,-0.0987 0.17002,-0.18928 0.37921,-0.278 z"
       id="path65"
       style="stroke-width:0.264583" />
    <path
       fill="#daae3e"
       opacity="1"
       stroke="none"
       d="m 173.1797,168.7652 c -0.0416,0.0975 -0.16575,0.19646 -0.37435,0.28724 0.041,-0.10074 0.16642,-0.19324 0.37435,-0.28724 z"
       id="path66"
       style="stroke-width:0.264583" />
    <path
       fill="#daae3e"
       opacity="1"
       stroke="none"
       d="m 188.48479,161.31743 c -0.0523,0.10648 -0.19905,0.21759 -0.44558,0.32239 0.0505,-0.11013 0.20085,-0.21394 0.44558,-0.32239 z"
       id="path67"
       style="stroke-width:0.264583" />
    <path
       fill="#daae3e"
       opacity="1"
       stroke="none"
       d="m 172.65378,169.03462 c -0.0436,0.0978 -0.17026,0.19355 -0.38103,0.2804 0.0433,-0.10008 0.17064,-0.19125 0.38103,-0.2804 z"
       id="path68"
       style="stroke-width:0.264583" />
    <path
       fill="#daae3e"
       opacity="1"
       stroke="none"
       d="m 189.54443,160.79146 c -0.0504,0.10585 -0.19415,0.21875 -0.43739,0.32763 0.0484,-0.10954 0.19616,-0.21506 0.43739,-0.32763 z"
       id="path69"
       style="stroke-width:0.264583" />
    <path
       fill="#daae3e"
       opacity="1"
       stroke="none"
       d="m 172.12271,169.29724 c -0.0402,0.0989 -0.16273,0.19819 -0.3692,0.29097 0.0397,-0.10119 0.16324,-0.19586 0.3692,-0.29097 z"
       id="path70"
       style="stroke-width:0.264583" />
    <path
       fill="#daae3e"
       opacity="1"
       stroke="none"
       d="m 171.60007,169.57332 c -0.0451,0.0955 -0.17265,0.18899 -0.38393,0.27372 0.0447,-0.0978 0.17304,-0.18679 0.38393,-0.27372 z"
       id="path71"
       style="stroke-width:0.264583" />
    <path
       fill="#daae3e"
       opacity="1"
       stroke="none"
       d="m 190.08792,160.52904 c -0.0434,0.10027 -0.16786,0.2013 -0.37846,0.28246 0.0417,-0.10715 0.16959,-0.19443 0.37846,-0.28246 z"
       id="path72"
       style="stroke-width:0.264583" />
    <path
       fill="#daae3e"
       opacity="1"
       stroke="none"
       d="m 190.59458,160.24915 c -0.0351,0.10238 -0.1491,0.21137 -0.34983,0.30342 0.0325,-0.11023 0.15168,-0.20354 0.34983,-0.30342 z"
       id="path73"
       style="stroke-width:0.264583" />
    <path
       fill="#daae3e"
       opacity="1"
       stroke="none"
       d="m 191.15953,159.93886 c -0.0423,0.1031 -0.16851,0.22428 -0.38886,0.32797 0.0389,-0.11495 0.17192,-0.21241 0.38886,-0.32797 z"
       id="path74"
       style="stroke-width:0.264583" />
    <path
       fill="#daae3e"
       opacity="1"
       stroke="none"
       d="m 185.62124,162.68792 c -0.0466,0.0972 -0.17649,0.18968 -0.39072,0.27185 0.0462,-0.0991 0.17683,-0.18781 0.39072,-0.27185 z"
       id="path75"
       style="stroke-width:0.264583" />
    <path
       fill="#daae3e"
       opacity="1"
       stroke="none"
       d="m 198.03792,151.01815 c -0.0474,0.0967 -0.17673,0.19221 -0.3918,0.26917 0.0461,-0.10248 0.17799,-0.18639 0.3918,-0.26917 z"
       id="path76"
       style="stroke-width:0.264583" />
    <path
       fill="#daae3e"
       opacity="1"
       stroke="none"
       d="m 187.8014,161.63822 c -0.0539,0.094 -0.19798,0.18948 -0.43028,0.28069 0.0546,-0.0959 0.19729,-0.18756 0.43028,-0.28069 z"
       id="path77"
       style="stroke-width:0.264583" />
    <path
       fill="#daae3e"
       opacity="1"
       stroke="none"
       d="m 173.71048,168.50294 c -0.044,0.097 -0.17082,0.19329 -0.38216,0.28052 0.0434,-0.0998 0.17139,-0.19051 0.38216,-0.28052 z"
       id="path78"
       style="stroke-width:0.264583" />
    <path
       fill="#daae3e"
       opacity="1"
       stroke="none"
       d="m 184.0038,163.45409 c -0.0555,0.10233 -0.2055,0.20856 -0.45458,0.31009 0.054,-0.10521 0.207,-0.20571 0.45458,-0.31009 z"
       id="path79"
       style="stroke-width:0.264583" />
    <path
       fill="#daae3e"
       opacity="1"
       stroke="none"
       d="m 180.79166,165.00725 c -0.0478,0.10591 -0.1877,0.22223 -0.42753,0.3327 0.0452,-0.11131 0.1903,-0.2168 0.42753,-0.3327 z"
       id="path80"
       style="stroke-width:0.264583" />
    <path
       fill="#daae3e"
       opacity="1"
       stroke="none"
       d="m 197.49056,151.26397 c -0.0397,0.0995 -0.15955,0.2043 -0.36534,0.29112 0.0378,-0.10726 0.16147,-0.19655 0.36534,-0.29112 z"
       id="path81"
       style="stroke-width:0.264583" />
    <path
       fill="#daae3e"
       opacity="1"
       stroke="none"
       d="m 174.23347,168.22883 c -0.0409,0.0981 -0.16414,0.19889 -0.37224,0.29142 0.0401,-0.10176 0.165,-0.19522 0.37224,-0.29142 z"
       id="path82"
       style="stroke-width:0.264583" />
    <path
       fill="#daae3e"
       opacity="1"
       stroke="none"
       d="m 175.30013,167.71122 c -0.0434,0.0969 -0.16922,0.19371 -0.37924,0.28133 0.0428,-0.0999 0.16981,-0.1907 0.37924,-0.28133 z"
       id="path83"
       style="stroke-width:0.264583" />
    <path
       fill="#daae3e"
       opacity="1"
       stroke="none"
       d="m 185.083,162.93774 c -0.0431,0.0982 -0.169,0.19705 -0.38024,0.28366 0.0423,-0.10252 0.1698,-0.19277 0.38024,-0.28366 z"
       id="path84"
       style="stroke-width:0.264583" />
    <path
       fill="#daae3e"
       opacity="1"
       stroke="none"
       d="m 171.06654,169.82879 c -0.0424,0.0975 -0.1674,0.19465 -0.37643,0.28358 0.0419,-0.10011 0.16785,-0.19201 0.37643,-0.28358 z"
       id="path85"
       style="stroke-width:0.264583" />
    <path
       fill="#daae3e"
       opacity="1"
       stroke="none"
       d="m 174.76925,167.97285 c -0.0459,0.0973 -0.17463,0.19185 -0.38822,0.27587 0.0452,-0.0999 0.17525,-0.18928 0.38822,-0.27587 z"
       id="path86"
       style="stroke-width:0.264583" />
    <path
       fill="#daae3e"
       opacity="1"
       stroke="none"
       d="m 184.55112,163.19685 c -0.0454,0.0994 -0.17385,0.19584 -0.38788,0.27755 0.0445,-0.1033 0.1747,-0.1919 0.38788,-0.27755 z"
       id="path87"
       style="stroke-width:0.264583" />
    <path
       fill="#daae3e"
       opacity="1"
       stroke="none"
       d="m 196.9667,151.52881 c -0.0468,0.0989 -0.17305,0.19605 -0.38379,0.2664 0.0451,-0.10725 0.1747,-0.18774 0.38379,-0.2664 z"
       id="path88"
       style="stroke-width:0.264583" />
    <path
       fill="#daae3e"
       opacity="1"
       stroke="none"
       d="m 183.29624,163.77498 c -0.002,0.0695 -0.10001,0.14397 -0.29106,0.23175 0.003,-0.0667 0.0986,-0.14673 0.29106,-0.23175 z"
       id="path89"
       style="stroke-width:0.264583" />
    <path
       fill="#daae3e"
       opacity="1"
       stroke="none"
       d="m 188.86675,161.13163 c 0.003,0.0657 -0.0744,0.13204 -0.22916,0.19949 -0.002,-0.0655 0.0734,-0.13218 0.22916,-0.19949 z"
       id="path90"
       style="stroke-width:0.264583" />
    <path
       fill="#daae3e"
       opacity="1"
       stroke="none"
       d="m 182.25198,164.28385 c 0.002,0.0656 -0.0779,0.13379 -0.23696,0.20047 -0.001,-0.067 0.0774,-0.13239 0.23696,-0.20047 z"
       id="path91"
       style="stroke-width:0.264583" />
    <path
       fill="#daae3e"
       opacity="1"
       stroke="none"
       d="m 182.76256,164.03212 c 1.5e-4,0.0703 -0.0974,0.14755 -0.28805,0.23858 0.001,-0.068 0.0959,-0.1498 0.28805,-0.23858 z"
       id="path92"
       style="stroke-width:0.264583" />
    <path
       fill="#daae3e"
       opacity="1"
       stroke="none"
       d="m 180.13506,165.34254 c 0.002,0.0663 -0.0773,0.13503 -0.23655,0.20313 -0.002,-0.0673 0.0767,-0.13403 0.23655,-0.20313 z"
       id="path93"
       style="stroke-width:0.264583" />
    <path
       fill="#fdc814"
       opacity="1"
       stroke="none"
       d="m 206.58952,236.00208 c 0.003,-27.59514 0.005,-55.19025 0.007,-82.78538 5e-5,-0.39673 0.0191,-0.79432 0,-1.19002 -0.0437,-0.87123 0.42907,-1.17299 1.15448,-0.87231 2.23218,0.92523 4.45339,1.8828 6.63138,2.92689 0.36055,0.17282 0.63246,0.82696 0.68326,1.2876 0.10578,0.95837 -0.0321,1.94313 0.0664,2.90305 0.0517,0.50368 0.39146,0.97778 0.70208,1.46474 0.10096,-5.3e-4 0.0971,0.004 0.0929,0.10125 0.1473,0.29627 0.25593,0.58548 0.45657,0.68053 3.88376,1.84016 7.77332,3.66841 11.67185,5.47713 5.69055,2.6402 11.39352,5.25359 17.08293,7.89626 4.65074,2.16027 9.28825,4.34899 13.9337,6.52076 2.97572,1.39116 5.96524,2.75329 8.93048,4.16635 4.3139,2.0557 8.61065,4.14731 12.91728,6.21833 0.45029,0.21655 0.94062,0.45926 1.01441,-0.37649 0,0 0.0777,0.0701 0.14002,0.0335 0.19859,-0.37071 0.29715,-0.72786 0.48257,-1.03211 0.15917,-0.26117 0.4028,-0.64149 0.63434,-0.66045 1.57064,-0.1286 3.08589,1.32548 3.08597,2.88789 0,14.87196 0,29.74392 -0.0889,44.65484 -1.79679,0.62973 -3.50385,1.2205 -5.21264,1.68798 -0.003,-0.78462 -0.006,-1.44592 -0.006,-2.10724 -0.003,-12.78523 0,-25.57044 -0.0228,-38.35565 0,-0.47999 -0.0892,-1.24169 -0.38121,-1.38964 -1.14911,-0.58214 -2.39602,-0.97118 -3.83104,-1.5173 0,16.89052 0,33.50005 -0.10662,50.11577 -1.70916,0.36577 -3.31163,0.72538 -4.91625,0.95861 -0.005,-9.51095 -0.01,-18.89553 -0.0116,-28.2801 -0.003,-7.88657 0.009,-15.77317 -0.0222,-23.65962 -0.003,-0.50312 -0.17928,-1.30029 -0.51107,-1.45524 -1.29307,-0.60381 -2.68126,-1.00388 -4.23219,-1.54944 0,17.16816 0,34.12085 -0.1125,51.07518 -1.88513,0.26439 -3.65779,0.52713 -5.43211,0.66633 -0.003,-17.48415 -0.005,-34.84475 -0.007,-52.20533 -2e-5,-0.39654 0.0532,-0.80412 -0.022,-1.18619 -0.0618,-0.31432 -0.20632,-0.77389 -0.43661,-0.86727 -1.44704,-0.58687 -2.92833,-1.08926 -4.57954,-1.68498 0,18.99233 0,37.79169 -0.11936,56.59393 -2.06359,0.18016 -4.00785,0.35744 -5.95288,0.41112 0,-19.34118 -0.003,-38.55878 -0.003,-57.77637 -3e-5,-0.39666 0.054,-0.80492 -0.023,-1.18639 -0.0632,-0.31319 -0.21465,-0.77105 -0.44603,-0.86201 -1.77742,-0.69893 -3.58389,-1.32384 -5.60965,-2.05401 0,1.73515 0,3.21264 0,4.69012 -1e-4,18.64458 -1.8e-4,37.28916 0,55.93374 0,0.3967 -0.0241,0.79495 0.003,1.18974 0.0514,0.74763 -0.29237,1.01357 -1.01931,0.99805 -1.45389,-0.031 -2.90941,-0.0322 -4.36325,8e-5 -0.75647,0.0168 -0.97805,-0.31573 -0.99266,-1.03143 -0.0547,-2.68036 -0.22664,-5.35959 -0.23162,-8.03948 -0.0254,-13.66383 -0.0122,-27.32774 -0.013,-40.99162 0,-4.76032 0.006,-9.52067 -0.0156,-14.28089 -0.003,-0.40502 -0.0751,-1.0709 -0.30821,-1.17248 -1.90331,-0.82908 -3.85252,-1.55274 -6.03414,-2.40468 0,22.87948 0,45.39256 -0.11055,67.90611 -2.49854,-0.26786 -4.88643,-0.53624 -7.2781,-0.9277 -0.006,-22.33743 -0.009,-44.55179 -0.0114,-66.76613 0,-3.10948 0.003,-3.11556 -2.91378,-4.2275 -1.24579,-0.47494 -2.50346,-0.91868 -3.97663,-1.45738 0,23.67482 0,47.06874 -0.10054,70.46226 -2.45155,-1.05173 -4.84799,-2.01484 -7.13439,-3.19178 -1.13765,-0.58561 -2.07351,-1.56326 -3.10065,-2.36357 z"
       id="path94"
       style="stroke-width:0.264583" />
    <path
       fill="#f8af14"
       opacity="1"
       stroke="none"
       d="m 250.27247,243.679 c 1.94429,-0.17728 3.88855,-0.35456 5.9559,-0.40941 0.12444,3.37814 0.13706,6.63391 0.11946,9.88947 -0.005,0.8355 0.18685,1.30315 1.14507,0.95755 0.28363,-0.10228 0.60531,-0.0944 0.9059,-0.15496 2.99212,-0.6036 2.99191,-0.60468 2.98037,-3.65982 1.86336,-0.26906 3.72669,-0.53811 5.70363,-0.69504 0.0262,0.94951 -0.0611,1.78687 -0.16314,2.76524 0.89558,-0.19701 1.52992,-0.35626 2.17188,-0.47432 2.62051,-0.48194 2.62133,-0.47728 2.60676,-3.15259 3.61203,-0.43685 7.22383,-0.87553 10.83627,-1.30939 0.91443,-0.10981 1.83158,-0.27784 2.74561,-0.26676 0.32975,0.004 0.90082,0.4222 0.93879,0.70768 0.1791,1.34583 0.21955,2.71074 0.29353,4.06969 0.0581,1.06784 -0.3633,1.65751 -1.4991,1.93064 -6.96471,1.67492 -13.91481,3.41061 -20.86441,5.14773 -5.96675,1.49146 -11.92046,3.03541 -17.89041,4.51388 -8.65375,2.1432 -17.31984,4.23664 -25.97491,6.37463 -4.2636,1.05323 -8.51408,2.15934 -12.77123,3.23879 -0.2046,0.0519 -0.41587,0.0776 -0.79578,0.14679 -0.0446,-0.49943 -0.11237,-0.91242 -0.11354,-1.32559 -0.008,-2.99839 0.0401,-5.99773 -0.0254,-8.99472 -0.0241,-1.10212 0.38947,-1.72747 1.3738,-2.11976 3.02424,-1.20531 6.03729,-2.43854 9.14641,-3.56137 -0.0188,1.56104 -0.12949,3.02254 -0.25276,4.6519 2.28269,-0.48726 4.23632,-0.95501 6.21128,-1.30098 0.79322,-0.13899 1.03322,-0.49567 1.02372,-1.22476 -0.0212,-1.62944 -0.01,-3.25919 -0.0116,-4.88886 2.31222,-0.79997 4.62447,-1.59997 7.04316,-2.27648 0.10633,1.92064 0.14348,3.7188 0.0921,5.5145 -0.0305,1.06714 0.28702,1.4455 1.38718,1.12533 1.25627,-0.36558 2.53604,-0.74168 3.82895,-0.86173 1.04772,-0.0973 1.18372,-0.55435 1.16633,-1.42398 -0.0455,-2.27846 -0.0238,-4.55827 -0.0288,-6.83752 2.2261,-0.71015 4.45222,-1.42034 6.78434,-2.01015 0.10605,2.54389 0.14983,4.96856 0.0868,7.39045 -0.0299,1.14882 0.45305,1.37496 1.44346,1.15451 1.11197,-0.24747 2.22605,-0.52814 3.35468,-0.64424 0.88278,-0.0908 1.06865,-0.48821 1.05817,-1.2828 -0.0377,-2.86369 -0.0196,-5.7281 -0.0225,-8.59226 0.49506,-0.36014 1.18578,-0.6966 0.0776,-1.37855 -0.0708,-0.33536 -0.0691,-0.53404 -0.0674,-0.73274 z"
       id="path95"
       style="stroke-width:0.264583" />
    <path
       fill="#efa512"
       opacity="1"
       stroke="none"
       d="m 250.27173,243.5554 c 0,0.3223 -0.003,0.52098 -0.006,0.81884 -3.48536,0.66341 -6.97169,1.21014 -10.4512,1.79746 -2.79146,0.47119 -5.57467,0.99161 -8.47606,1.36634 -0.11721,-1.10415 -0.11983,-2.08439 -0.12245,-3.06464 0,-22.51307 0,-45.02615 0,-67.90563 2.18162,0.85194 4.13083,1.5756 6.03414,2.40468 0.23312,0.10158 0.30636,0.76746 0.30821,1.17248 0.0214,4.76022 0.0154,9.52057 0.0156,14.28089 0,13.66388 -0.0127,27.32779 0.013,40.99162 0.005,2.67989 0.17695,5.35912 0.23161,8.03948 0.0146,0.7157 0.2362,1.04823 0.99267,1.03143 1.45383,-0.0323 2.90936,-0.0311 4.36324,-8e-5 0.72694,0.0155 1.07066,-0.25042 1.01931,-0.99805 -0.0271,-0.39479 -0.003,-0.79304 -0.003,-1.18974 2.1e-4,-18.64458 0,-37.28916 0,-55.93374 0,-1.47748 0,-2.95497 0,-4.69012 2.02575,0.73017 3.83222,1.35508 5.60964,2.05401 0.23138,0.091 0.38283,0.54882 0.44604,0.86201 0.077,0.38147 0.023,0.78973 0.023,1.18639 0,19.21759 0,38.43519 0.003,57.77637 z"
       id="path96"
       style="stroke-width:0.264583" />
    <path
       fill="#efa512"
       opacity="1"
       stroke="none"
       d="m 216.9251,241.55783 c 0,-23.39392 0,-46.78784 0,-70.46266 1.47317,0.5387 2.73084,0.98244 3.97664,1.45738 2.91644,1.11194 2.91343,1.11802 2.91377,4.2275 0.003,22.21434 0.005,44.4287 0.006,66.89149 -1.9e-4,1.93888 0.003,3.6293 0.004,5.31972 -2.22641,0.51409 -4.45278,1.02818 -6.7841,1.431 -0.10845,-3.02895 -0.11197,-5.94668 -0.11554,-8.86443 z"
       id="path97"
       style="stroke-width:0.264583" />
    <path
       fill="#efa512"
       opacity="1"
       stroke="none"
       d="m 261.27268,250.29836 c 0.11803,3.05861 0.11824,3.05969 -2.87388,3.66329 -0.30059,0.0606 -0.62227,0.0527 -0.9059,0.15496 -0.95822,0.3456 -1.14959,-0.12205 -1.14507,-0.95755 0.0175,-3.25556 0.005,-6.51133 -1.3e-4,-9.89234 -0.004,-18.92468 -0.004,-37.72404 -0.004,-56.71637 1.65121,0.59572 3.1325,1.09811 4.57954,1.68498 0.23029,0.0934 0.3748,0.55295 0.43661,0.86727 0.0752,0.38207 0.022,0.78965 0.022,1.18619 0.003,17.36058 0.003,34.72118 0.004,52.33007 -0.003,2.19815 -0.003,4.14798 -0.003,6.19339 0.013,0.22209 0.0259,0.34864 0.0391,0.47519 0,0 -0.0116,0 -0.007,0 -0.6263,0.0982 -1.25743,0.19468 -1.88852,0.29112 0,0.17037 0.003,0.3407 0.003,0.51107 0.54531,0.0681 1.09059,0.13626 1.74234,0.20788 z"
       id="path98"
       style="stroke-width:0.264583" />
    <path
       fill="#f8af14"
       opacity="1"
       stroke="none"
       d="m 216.82456,241.55743 c 0.10411,2.91815 0.10763,5.83588 0.11337,8.87716 -2.78802,0.68879 -5.58271,1.2332 -8.36694,1.82637 -1.96975,0.41963 -2.24621,0.24334 -2.21335,-1.78977 0.0625,-3.86199 0.17156,-7.72322 0.23331,-11.58521 0.0146,-0.9086 -0.0821,-1.81901 -0.0645,-2.80624 1.09021,0.72265 2.02607,1.7003 3.16373,2.28591 2.28639,1.17694 4.68283,2.14005 7.13438,3.19178 z"
       id="path99"
       style="stroke-width:0.264583" />
    <path
       fill="#eca010"
       opacity="1"
       stroke="none"
       d="m 250.16285,245.80242 c 0.10232,2.85203 0.0841,5.71644 0.1219,8.58013 0.0106,0.79459 -0.1754,1.19197 -1.05818,1.2828 -1.12863,0.1161 -2.24271,0.39677 -3.35468,0.64424 -0.99041,0.22045 -1.47336,-0.006 -1.44346,-1.15451 0.063,-2.42189 0.0193,-4.84656 0.018,-7.39614 1.87148,-0.73215 3.74431,-1.33826 5.71654,-1.95652 z"
       id="path100"
       style="stroke-width:0.264583" />
    <path
       fill="#eca010"
       opacity="1"
       stroke="none"
       d="m 237.45978,249.78525 c 0.10253,2.26878 0.0808,4.54859 0.12632,6.82705 0.0175,0.86963 -0.11862,1.32672 -1.16634,1.42398 -1.29291,0.12005 -2.57268,0.49615 -3.82894,0.86173 -1.10017,0.32017 -1.41772,-0.0582 -1.38719,-1.12533 0.0514,-1.7957 0.0143,-3.59386 0.013,-5.51728 1.55186,-0.73943 3.10266,-1.35892 4.65976,-1.96209 0.48654,-0.18849 0.99017,-0.33296 1.58345,-0.50806 z"
       id="path101"
       style="stroke-width:0.264583" />
    <path
       fill="#eca010"
       opacity="1"
       stroke="none"
       d="m 223.97193,254.54553 c 0.0984,1.6188 0.087,3.24855 0.10819,4.87799 0.01,0.72909 -0.2305,1.08577 -1.02372,1.22476 -1.97496,0.34597 -3.92859,0.81372 -6.21128,1.30098 0.12327,-1.62936 0.23386,-3.09086 0.34962,-4.66434 2.23038,-0.98417 4.45555,-1.85637 6.77719,-2.73939 z"
       id="path102"
       style="stroke-width:0.264583" />
    <path
       fill="#f8b610"
       opacity="1"
       stroke="none"
       d="m 223.93883,248.9888 c -0.11604,-1.68796 -0.11797,-3.37838 -0.11406,-5.19417 2.3939,0.14301 4.78179,0.41139 7.28033,0.67925 0.11316,0.97977 0.11578,1.96001 0.1211,3.06305 -2.38929,0.56502 -4.78129,1.00719 -7.28737,1.45187 z"
       id="path103"
       style="stroke-width:0.264583" />
    <path
       fill="#eca010"
       opacity="1"
       stroke="none"
       d="m 271.59124,248.73901 c 0.12163,2.68142 0.12081,2.67676 -2.4997,3.1587 -0.64196,0.11806 -1.2763,0.27731 -2.17188,0.47432 0.10205,-0.97837 0.18941,-1.81573 0.27511,-2.76466 1.42872,-0.36589 2.85906,-0.62018 4.39647,-0.86836 z"
       id="path104"
       style="stroke-width:0.264583" />
    <path
       fill="#daae3e"
       opacity="1"
       stroke="none"
       d="m 261.52798,249.28966 c -0.11819,-0.12877 -0.13121,-0.25532 -0.0421,-0.49278 1.88804,-0.6249 3.67401,-1.13885 5.56975,-1.65471 1.62552,-0.44087 3.14126,-0.87983 4.65698,-1.31879 1.60253,-0.3596 3.20501,-0.71921 5.0137,-1.09512 1.63608,-0.44875 3.06602,-0.8812 4.59824,-1.3265 1.24968,-0.27951 2.42319,-0.46876 3.53391,-0.84393 0.59777,-0.20191 1.52416,-0.69458 1.55051,-1.10445 0.11073,-1.71932 -0.0625,-3.45695 -0.13184,-5.18786 -2.1e-4,-14.87196 0,-29.74392 0,-44.61588 -8e-5,-1.56241 -1.51532,-3.01649 -3.08597,-2.88789 -0.23153,0.019 -0.47516,0.39928 -0.63434,0.66045 -0.18542,0.30425 -0.28397,0.6614 -0.51937,0.9949 -0.0991,-0.91662 -0.0991,-1.83257 -0.0991,-3.04295 1.76617,0.75558 3.31206,1.41689 4.94789,2.10871 0.10986,3.68374 0.14463,7.33699 0.14706,10.99027 0.009,13.95693 0.008,27.91386 -0.007,41.99093 -6.86594,1.93489 -13.7134,3.75059 -20.56162,5.5637 -1.60887,0.42595 -3.22013,0.84299 -4.93553,1.2619 z"
       id="path107"
       style="stroke-width:0.264583" />
    <path
       fill="#daae3e"
       opacity="1"
       stroke="none"
       d="m 281.84538,190.41607 c 0.0143,0.84045 -0.47611,0.59774 -0.92641,0.38119 -4.30662,-2.07102 -8.60338,-4.16263 -12.91727,-6.21833 -2.96524,-1.41306 -5.95477,-2.77519 -8.93049,-4.16635 -4.64544,-2.17177 -9.28295,-4.36049 -13.93369,-6.52076 -5.68942,-2.64267 -11.39238,-5.25606 -17.08293,-7.89626 -3.89853,-1.80872 -7.78809,-3.63697 -11.67186,-5.47713 -0.20063,-0.095 -0.30927,-0.38426 -0.45342,-0.68079 4.37677,1.878 8.76988,3.80324 13.11146,5.83832 17.45866,8.18374 34.90134,16.40157 52.35067,24.60519 0.11663,0.0548 0.24371,0.0873 0.45394,0.13492 z"
       id="path108"
       style="stroke-width:0.264583" />
    <path
       fill="#f8af14"
       opacity="1"
       stroke="none"
       d="m 200.2536,252.41413 c 0.005,6.43747 -0.0106,12.87504 0.0336,19.31225 0.008,1.1747 -0.30348,1.45698 -1.46108,1.11993 -3.1242,-0.90969 -6.27176,-1.74228 -9.42301,-2.55524 -5.90666,-1.52382 -11.83232,-2.97482 -17.7316,-4.52631 -5.39051,-1.41771 -10.75443,-2.93629 -16.13417,-4.3952 -4.10877,-1.11422 -8.21258,-2.24952 -12.33906,-3.2947 -5.57786,-1.4128 -11.17317,-2.75701 -16.76542,-4.11242 -2.23174,-0.54091 -2.378,-0.69411 -2.37813,-3.01294 -5.3e-4,-7.98076 7.9e-4,-15.96151 0.004,-24.06485 1.26609,0.57097 2.53005,1.26453 3.92861,2.06805 0.19175,0.40956 0.30484,0.71057 0.29736,1.00857 -0.0708,2.82679 -0.22933,5.65309 -0.22866,8.47952 5.3e-4,2.85502 0.18639,5.7095 0.23004,8.56516 0.0434,2.8409 0.0101,2.84161 2.89234,3.13549 0.0397,0.004 0.0828,-0.0257 0.30695,-0.10086 0,-6.49074 0,-13.04413 0,-19.59753 1.16407,0.43454 2.32813,0.86907 3.59052,1.4399 0.0985,5.76607 0.0856,11.39587 0.10462,17.02555 0.009,2.69558 -0.30544,1.83674 2.1556,2.41951 1.02301,0.24223 1.58929,-0.0581 1.5739,-1.34239 -0.0664,-5.54098 -0.0268,-11.08323 -0.0257,-16.62501 1.25694,0.5212 2.51387,1.04242 3.86774,1.69988 0.0967,4.9786 0.0963,9.82097 0.0961,14.66335 -9e-5,2.54678 0.0153,2.48275 2.54607,3.08481 1.21845,0.28987 1.44788,-0.11705 1.44003,-1.21383 -0.0353,-4.93015 -0.0151,-9.86069 -0.0149,-14.79111 1.43812,0.50149 2.87623,1.00297 4.40486,1.66768 0.0907,4.83388 0.0773,9.50464 0.11298,14.17507 0.003,0.44675 0.21031,1.18512 0.49758,1.28492 1.13331,0.39381 2.33642,0.58682 3.72678,0.90276 0,-5.0206 0,-9.81139 0,-14.60215 1.69234,0.43457 3.38467,0.86915 5.17746,1.44066 0.10051,4.49 0.0841,8.8432 0.12749,13.19586 0.004,0.41283 0.31227,1.11379 0.5996,1.18321 1.38804,0.3355 2.81728,0.50062 4.40391,0.75359 0,-4.88455 0,-9.6656 0,-14.44664 1.87837,0.50145 3.75675,1.00291 5.72657,1.66843 0.0913,4.39687 0.0718,8.62983 0.11918,12.86208 0.005,0.4554 0.31172,1.2187 0.62738,1.30702 1.62764,0.45551 3.30384,0.73752 5.17275,1.12331 0,-4.55705 0,-8.90931 0,-13.26159 2.04222,0.52962 4.08444,1.05924 6.23441,1.71269 0.10811,3.94817 0.13738,7.77285 0.0873,11.59648 -0.0116,0.88609 0.29543,1.2728 1.12913,1.40501 1.33919,0.21254 2.70004,0.3706 3.99732,0.74181 1.25178,0.35822 1.56626,-0.0373 1.52329,-1.22827 -0.12336,-3.41741 -0.18258,-6.83715 -0.15821,-10.25499 0.74903,0.13798 1.39349,0.25803 2.02883,0.41487 2.63347,0.65016 5.2642,1.31143 7.89593,1.96861 z"
       id="path130"
       style="stroke-width:0.264583" />
    <path
       fill="#eea312"
       opacity="1"
       stroke="none"
       d="m 190.22005,250.02965 c 0.0844,3.41884 0.14363,6.83858 0.26699,10.25599 0.043,1.19099 -0.27151,1.58649 -1.52329,1.22827 -1.29727,-0.37121 -2.65812,-0.52927 -3.99732,-0.74181 -0.8337,-0.13221 -1.14074,-0.51892 -1.12913,-1.40501 0.05,-3.82363 0.0208,-7.64831 0.0183,-11.59735 1e-4,-24.23412 0.0109,-48.34353 -0.0228,-72.45286 -0.002,-1.11915 0.23539,-1.76511 1.34144,-2.16818 1.64112,-0.59813 3.22263,-1.35979 5.04685,-2.14545 0,22.84063 0,45.51478 -0.003,68.43736 -10e-4,3.69532 2e-4,7.14217 0.002,10.58904 z"
       id="path131"
       style="stroke-width:0.264583" />
    <path
       fill="#eea312"
       opacity="1"
       stroke="none"
       d="m 177.51292,245.93458 c 0.003,4.47562 0.003,8.82788 0.003,13.38493 -1.86891,-0.38579 -3.54511,-0.6678 -5.17275,-1.12331 -0.31566,-0.0883 -0.62229,-0.85162 -0.62738,-1.30702 -0.0474,-4.23225 -0.0279,-8.46521 -0.0296,-12.82259 -0.001,-21.23787 0.0139,-42.35115 -0.0311,-63.46431 -0.003,-1.36997 0.35369,-2.09143 1.69896,-2.48591 1.27972,-0.37528 2.48202,-1.01454 4.15659,-1.72318 0,23.38013 0,46.39907 0.003,69.54139 z"
       id="path132"
       style="stroke-width:0.264583" />
    <path
       fill="#efa512"
       opacity="1"
       stroke="none"
       d="m 165.8687,242.23481 c 0.001,4.9049 0.001,9.68595 0.001,14.5705 -1.58663,-0.25297 -3.01587,-0.41809 -4.40392,-0.75359 -0.28732,-0.0694 -0.59547,-0.77038 -0.59959,-1.18321 -0.0434,-4.35266 -0.027,-8.70586 -0.029,-13.18356 -0.002,-18.99107 0.0108,-37.85752 -0.0323,-56.72386 -0.003,-1.28101 0.23004,-2.0813 1.57777,-2.40074 0.84835,-0.20109 1.64478,-0.61784 2.46864,-0.92688 0.66619,-0.24989 1.0197,-0.0316 1.00896,0.70438 -0.005,0.35254 0.002,0.70527 0.002,1.05791 0.002,19.57172 0.004,39.14346 0.006,58.83905 z"
       id="path133"
       style="stroke-width:0.264583" />
    <path
       fill="#eea312"
       opacity="1"
       stroke="none"
       d="m 155.55899,240.10914 c 0.002,4.91361 0.002,9.7044 0.002,14.725 -1.39035,-0.31594 -2.59346,-0.50895 -3.72678,-0.90276 -0.28727,-0.0998 -0.49417,-0.83817 -0.49757,-1.28492 -0.0357,-4.67043 -0.0223,-9.34119 -0.0244,-14.13651 -5.2e-4,-16.73286 0.0196,-33.34115 -0.0346,-49.94919 -0.004,-1.30564 0.43541,-1.92161 1.59301,-2.25308 0.79401,-0.22736 1.56516,-0.53464 2.68595,-0.92413 0,18.32037 0,36.46156 0.002,54.72559 z"
       id="path134"
       style="stroke-width:0.264583" />
    <path
       fill="#eca010"
       opacity="1"
       stroke="none"
       d="m 146.81766,236.67972 c 0.001,5.05441 -0.0191,9.98495 0.0162,14.9151 0.008,1.09678 -0.22157,1.5037 -1.44003,1.21383 -2.5308,-0.60206 -2.54616,-0.53803 -2.54606,-3.08481 1.8e-4,-4.84238 5.3e-4,-9.68475 -7.9e-4,-14.65152 -1.8e-4,-14.26121 0.0245,-28.3981 -0.0308,-42.53467 -0.006,-1.53366 0.29201,-2.52843 1.91486,-2.85991 0.62796,-0.12825 1.21751,-0.44464 2.08525,-0.77438 0,16.00185 0,31.82709 0.001,47.77636 z"
       id="path135"
       style="stroke-width:0.264583" />
    <path
       fill="#eca010"
       opacity="1"
       stroke="none"
       d="m 138.88225,233.23697 c 5.3e-4,5.66542 -0.039,11.20767 0.0274,16.74865 0.0154,1.28432 -0.55089,1.58462 -1.57391,1.34239 -2.46104,-0.58277 -2.14649,0.27607 -2.1556,-2.41951 -0.019,-5.62968 -0.006,-11.25948 -0.009,-17.01397 1.6e-4,-12.3776 -2.7e-4,-24.63046 0.0162,-36.88331 5.3e-4,-0.50058 -0.003,-1.28765 0.27821,-1.44854 0.90004,-0.51568 1.92737,-0.81615 2.92353,-1.14539 0.0925,-0.0306 0.41093,0.30397 0.45178,0.5042 0.0779,0.38168 0.0353,0.78881 0.0353,1.18536 0.002,13.00216 0.003,26.00431 0.006,39.13012 z"
       id="path136"
       style="stroke-width:0.264583" />
    <path
       fill="#eca010"
       opacity="1"
       stroke="none"
       d="m 131.48136,230.32016 c 0.004,6.67629 0.004,13.22968 0.004,19.72042 -0.22413,0.0752 -0.26725,0.1049 -0.30694,0.10086 -2.88222,-0.29388 -2.84894,-0.29459 -2.89234,-3.13549 -0.0437,-2.85566 -0.22939,-5.71014 -0.23005,-8.56516 -7.9e-4,-2.82643 0.15789,-5.65273 0.22867,-8.47952 0.007,-0.298 -0.10561,-0.59901 -0.20425,-0.99444 0.0416,-4.40654 0.19897,-8.71744 0.19003,-13.02798 -0.0126,-6.07423 -0.15211,-12.14816 -0.2284,-18.22232 -0.015,-1.19294 1.72244,-2.63742 2.90901,-2.39094 0.20316,0.0422 0.42338,0.38549 0.48584,0.62826 0.0853,0.33142 0.0295,0.69986 0.0296,1.05242 0.004,11.06366 0.008,22.12731 0.0152,33.31389 z"
       id="path137"
       style="stroke-width:0.264583" />
    <path
       fill="#f8b610"
       opacity="1"
       stroke="none"
       d="m 190.32883,250.03065 c -0.11024,-3.44787 -0.11172,-6.89472 -0.10819,-10.46674 3.37384,-0.93859 6.44904,-2.34776 9.11194,-4.60004 0.22956,-0.19418 0.49718,-0.34336 0.83813,-0.52355 0.0917,5.9019 0.0923,11.81393 0.0879,17.84988 -2.63679,-0.53325 -5.26752,-1.19452 -7.90098,-1.84468 -0.63535,-0.15684 -1.2798,-0.27689 -2.02884,-0.41487 z"
       id="path138"
       style="stroke-width:0.264583" />
    <path
       fill="#efa512"
       opacity="1"
       stroke="none"
       d="m 271.71049,245.697 c -1.51363,0.56534 -3.02937,1.0043 -4.65754,1.31888 -0.11477,-1.81283 -0.11713,-3.50128 -0.11948,-5.18974 0,-16.95268 0,-33.90537 0,-51.07353 1.55093,0.54556 2.93912,0.94563 4.23219,1.54944 0.33179,0.15495 0.50909,0.95212 0.51107,1.45524 0.0311,7.88645 0.0206,15.77305 0.0222,23.65962 0.003,9.38457 0.006,18.76915 0.0116,28.28009 z"
       id="path139"
       style="stroke-width:0.264583" />
    <path
       fill="#eea312"
       opacity="1"
       stroke="none"
       d="m 281.22226,243.41461 c -1.42996,0.43245 -2.8599,0.8649 -4.38938,1.30748 -0.0995,-16.59941 -0.0995,-33.20894 -0.0995,-50.09946 1.43502,0.54612 2.68192,0.93516 3.83103,1.5173 0.29202,0.14795 0.38042,0.90965 0.38121,1.38964 0.022,12.78521 0.0201,25.57042 0.0228,38.35565 1.3e-4,0.66132 0.003,1.32262 0.003,2.23223 0.0822,1.93127 0.16714,3.61421 0.25213,5.29716 z"
       id="path140"
       style="stroke-width:0.264583" />
    <path
       fill="#f8b610"
       opacity="1"
       stroke="none"
       d="m 266.82097,241.82779 c 0.11485,1.68681 0.11721,3.37526 0.12218,5.18999 -1.78329,0.64025 -3.56926,1.1542 -5.45735,1.68353 -0.10152,-1.93447 -0.10091,-3.8843 -0.0978,-5.95888 1.77514,-0.38751 3.5478,-0.65025 5.43293,-0.91464 z"
       id="path141"
       style="stroke-width:0.264583" />
    <path
       fill="#f8b610"
       opacity="1"
       stroke="none"
       d="m 281.32452,243.40176 c -0.18724,-1.6701 -0.27223,-3.35304 -0.35263,-5.16099 1.71161,-0.71579 3.41868,-1.30656 5.21546,-1.93629 0.15905,1.69195 0.33232,3.42958 0.22159,5.1489 -0.0265,0.40987 -0.95274,0.90254 -1.55051,1.10445 -1.11072,0.37517 -2.28423,0.56442 -3.53391,0.84393 z"
       id="path142"
       style="stroke-width:0.264583" />
  </g>
</svg>
